
<svg xmlns="http://www.w3.org/2000/svg" version="1.1" xmlns:xlink="http://www.w3.org/1999/xlink" xmlns:svgjs="http://svgjs.dev/svgjs" width="1000" height="623" viewBox="0 0 1000 623"><g transform="matrix(1,0,0,1,-0.6060606060606233,0.2522267206477977)"><svg viewBox="0 0 396 247" data-background-color="#ffffff" preserveAspectRatio="xMidYMid meet" height="623" width="1000" xmlns="http://www.w3.org/2000/svg" xmlns:xlink="http://www.w3.org/1999/xlink"><g id="tight-bounds" transform="matrix(1,0,0,1,0.2400000000000091,-0.09999999999999432)"><svg viewBox="0 0 395.52 247.2" height="247.2" width="395.52"><g><svg></svg></g><g><svg viewBox="0 0 395.52 247.2" height="247.2" width="395.52"><g transform="matrix(1,0,0,1,75.54432,79.45270334693876)"><svg viewBox="0 0 244.43135999999998 88.29459330612245" height="88.29459330612245" width="244.43135999999998"><g><svg viewBox="0 0 244.43135999999998 88.29459330612245" height="88.29459330612245" width="244.43135999999998"><g><svg viewBox="0 0 244.43135999999998 88.29459330612245" height="88.29459330612245" width="244.43135999999998"><g><svg viewBox="0 0 244.43135999999998 88.29459330612245" height="88.29459330612245" width="244.43135999999998"><g id="textblocktransform"><svg viewBox="0 0 244.43135999999998 88.29459330612245" height="88.29459330612245" width="244.43135999999998" id="textblock"><g><svg viewBox="0 0 244.43135999999998 88.29459330612245" height="88.29459330612245" width="244.43135999999998"><g transform="matrix(1,0,0,1,0,0)"><svg width="244.43135999999998" viewBox="4.349999904632568 -35.25 122.48999786376953 44.25" height="88.29459330612245" data-palette-color="#ec9131"><path d="M24.35-18.1Q27.4-17.3 29.08-15.1 30.75-12.9 30.75-9.6L30.75-9.6Q30.75-4.95 27.7-2.48 24.65 0 19.05 0L19.05 0 4.35 0 4.35-35.25 18.5-35.25Q23.95-35.25 26.95-32.85 29.95-30.45 29.95-26.05L29.95-26.05Q29.95-23.2 28.48-21.15 27-19.1 24.35-18.1L24.35-18.1ZM8.4-31.85L8.4-19.6 17.9-19.6Q21.85-19.6 23.88-21.2 25.9-22.8 25.9-25.85L25.9-25.85Q25.9-31.85 17.9-31.85L17.9-31.85 8.4-31.85ZM18.65-3.4Q22.8-3.4 24.78-4.93 26.75-6.45 26.75-9.7L26.75-9.7Q26.75-16.2 18.65-16.2L18.65-16.2 8.4-16.2 8.4-3.4 18.65-3.4ZM41.5 0L37.45 0 37.45-24.35 41.5-24.35 41.5 0ZM37.05-30.35L37.05-34.9 41.95-34.9 41.95-30.35 37.05-30.35ZM59.35 0.35Q55.75 0.35 53.1-1.2 50.45-2.75 49.02-5.58 47.6-8.4 47.6-12.2L47.6-12.2Q47.6-16 49.07-18.88 50.55-21.75 53.22-23.35 55.9-24.95 59.5-24.95L59.5-24.95Q61.95-24.95 64.3-24.08 66.65-23.2 68.1-21.75L68.1-21.75 66.75-18.75Q63.3-21.55 59.75-21.55L59.75-21.55Q56-21.55 53.9-19.1 51.8-16.65 51.8-12.2L51.8-12.2Q51.8-7.8 53.9-5.4 56-3 59.75-3L59.75-3Q63.3-3 66.75-5.8L66.75-5.8 68.1-2.8Q66.55-1.35 64.2-0.5 61.85 0.35 59.35 0.35L59.35 0.35ZM82.19-4.4L90.44-24.3 94.49-24.3 80.09 9 75.94 9 80.04-0.3 69.74-24.3 74.04-24.3 82.19-4.4ZM126.24-35.25L113.44-18 126.84 0 121.99 0 111.09-14.95 100.19 0 95.34 0 108.74-18.05 95.99-35.25 100.84-35.25 111.14-21.1 121.44-35.25 126.24-35.25Z" opacity="1" transform="matrix(1,0,0,1,0,0)" fill="#ec9131" class="undefined-text-0" data-fill-palette-color="primary" id="text-0"></path></svg></g></svg></g></svg></g></svg></g></svg></g></svg></g></svg></g><g><path d="M245.816 0c68.262 0 123.6 55.338 123.6 123.6 0 68.262-55.338 123.6-123.6 123.6-48.674 0-90.777-28.136-110.933-69.031l4.458 0c19.835 38.624 60.069 65.049 106.475 65.05 66.064 0 119.619-53.555 119.618-119.619 0-66.064-53.555-119.619-119.618-119.619-46.406 0-86.64 26.425-106.475 65.05l-4.458 0c20.155-40.895 62.258-69.031 110.933-69.031z" fill="#ec9131" stroke="transparent" data-fill-palette-color="tertiary"></path></g></svg></g><defs></defs></svg><rect width="395.52" height="247.2" fill="none" stroke="none" visibility="hidden"></rect></g></svg></g></svg>